<svg width="125" height="37" viewBox="0 0 125 37" fill="none" xmlns="http://www.w3.org/2000/svg">
<rect width="125" height="37" fill="white"/>
<path d="M9.4868 29.3637C7.78949 29.3637 6.16289 29.1414 4.60701 28.6969C3.05113 28.2322 1.79835 27.6361 0.84866 26.9087L2.51567 23.2109C3.42495 23.8575 4.49588 24.393 5.72845 24.8173C6.98124 25.2214 8.24412 25.4235 9.51711 25.4235C10.487 25.4235 11.2649 25.3326 11.8509 25.1507C12.4571 24.9487 12.9017 24.6759 13.1845 24.3324C13.4674 23.9889 13.6089 23.5948 13.6089 23.1503C13.6089 22.5845 13.3866 22.14 12.9421 21.8167C12.4975 21.4732 11.9115 21.2004 11.1841 20.9984C10.4567 20.7761 9.64845 20.574 8.75938 20.3922C7.89052 20.1901 7.01155 19.9476 6.12247 19.6647C5.25361 19.3819 4.45546 19.0181 3.72804 18.5736C3.00062 18.1291 2.40454 17.5431 1.93979 16.8157C1.49526 16.0882 1.27299 15.1588 1.27299 14.0272C1.27299 12.8148 1.59629 11.7136 2.24289 10.7235C2.90969 9.71319 3.89979 8.91505 5.2132 8.32907C6.5468 7.72289 8.21381 7.41979 10.2142 7.41979C11.5478 7.41979 12.8612 7.58144 14.1544 7.90474C15.4476 8.20783 16.5893 8.67258 17.5794 9.29897L16.0639 13.027C15.0738 12.4612 14.0837 12.047 13.0936 11.7843C12.1035 11.5014 11.1336 11.36 10.1839 11.36C9.23423 11.36 8.45629 11.4711 7.8501 11.6934C7.24392 11.9157 6.80948 12.2087 6.5468 12.5724C6.28412 12.9159 6.15278 13.32 6.15278 13.7847C6.15278 14.3303 6.37505 14.7748 6.81959 15.1183C7.26412 15.4416 7.8501 15.7043 8.57753 15.9064C9.30495 16.1085 10.1031 16.3105 10.972 16.5126C11.861 16.7146 12.74 16.947 13.6089 17.2097C14.4979 17.4724 15.3062 17.826 16.0336 18.2705C16.761 18.7151 17.347 19.301 17.7915 20.0285C18.2563 20.7559 18.4887 21.6753 18.4887 22.7866C18.4887 23.9788 18.1553 25.0699 17.4885 26.06C16.8217 27.0501 15.8214 27.8482 14.4878 28.4544C13.1744 29.0606 11.5074 29.3637 9.4868 29.3637ZM29.2695 29.2425C27.5318 29.2425 25.986 28.8788 24.6322 28.1513C23.2986 27.4239 22.2378 26.4338 21.4497 25.181C20.6819 23.908 20.298 22.4633 20.298 20.8468C20.298 19.2101 20.6819 17.7654 21.4497 16.5126C22.2378 15.2396 23.2986 14.2495 24.6322 13.5423C25.986 12.8148 27.5318 12.4511 29.2695 12.4511C30.9871 12.4511 32.5227 12.8148 33.8765 13.5423C35.2304 14.2495 36.2912 15.2295 37.059 16.4823C37.8268 17.7351 38.2108 19.1899 38.2108 20.8468C38.2108 22.4633 37.8268 23.908 37.059 25.181C36.2912 26.4338 35.2304 27.4239 33.8765 28.1513C32.5227 28.8788 30.9871 29.2425 29.2695 29.2425ZM29.2695 25.3629C30.0576 25.3629 30.7648 25.181 31.3912 24.8173C32.0176 24.4536 32.5126 23.9384 32.8763 23.2715C33.24 22.5845 33.4219 21.7763 33.4219 20.8468C33.4219 19.8971 33.24 19.0889 32.8763 18.4221C32.5126 17.7553 32.0176 17.24 31.3912 16.8763C30.7648 16.5126 30.0576 16.3307 29.2695 16.3307C28.4815 16.3307 27.7743 16.5126 27.1479 16.8763C26.5215 17.24 26.0163 17.7553 25.6324 18.4221C25.2687 19.0889 25.0868 19.8971 25.0868 20.8468C25.0868 21.7763 25.2687 22.5845 25.6324 23.2715C26.0163 23.9384 26.5215 24.4536 27.1479 24.8173C27.7743 25.181 28.4815 25.3629 29.2695 25.3629ZM41.3712 29V6.51051H46.0995V29H41.3712ZM58.5803 29.2425C56.7213 29.2425 55.0846 28.8788 53.6702 28.1513C52.2759 27.4239 51.1949 26.4338 50.4271 25.181C49.6592 23.908 49.2753 22.4633 49.2753 20.8468C49.2753 19.2101 49.6491 17.7654 50.3968 16.5126C51.1646 15.2396 52.2052 14.2495 53.5186 13.5423C54.832 12.8148 56.3172 12.4511 57.9741 12.4511C59.5704 12.4511 61.005 12.7946 62.278 13.4816C63.5712 14.1485 64.5916 15.1183 65.3392 16.3913C66.0869 17.6441 66.4607 19.1495 66.4607 20.9074C66.4607 21.0893 66.4506 21.3014 66.4304 21.5439C66.4102 21.7662 66.3899 21.9784 66.3697 22.1804H53.1246V19.4223H63.8844L62.0658 20.2406C62.0658 19.392 61.8941 18.6544 61.5506 18.028C61.2071 17.4016 60.7322 16.9167 60.126 16.5732C59.5198 16.2095 58.8126 16.0276 58.0044 16.0276C57.1961 16.0276 56.4788 16.2095 55.8524 16.5732C55.2462 16.9167 54.7714 17.4118 54.4279 18.0583C54.0844 18.6847 53.9126 19.4324 53.9126 20.3012V21.0287C53.9126 21.9177 54.1046 22.7058 54.4885 23.3928C54.8926 24.0596 55.4483 24.5748 56.1555 24.9386C56.8829 25.2821 57.7316 25.4538 58.7015 25.4538C59.5704 25.4538 60.3281 25.3225 60.9747 25.0598C61.6415 24.7971 62.2477 24.4031 62.7932 23.8777L65.3089 26.6056C64.5613 27.4542 63.6217 28.1109 62.4902 28.5757C61.3586 29.0202 60.0553 29.2425 58.5803 29.2425ZM69.6086 29V6.51051H74.3368V29H69.6086ZM80.7861 35.1225C79.9374 35.1225 79.0989 34.9911 78.2704 34.7285C77.4419 34.4658 76.765 34.1021 76.2397 33.6373L77.9673 30.273C78.331 30.5963 78.7452 30.8489 79.21 31.0307C79.6949 31.2126 80.1698 31.3035 80.6345 31.3035C81.3013 31.3035 81.8267 31.1419 82.2106 30.8186C82.6147 30.5155 82.9784 30.0002 83.3017 29.2728L84.1504 27.2724L84.5141 26.7571L90.3638 12.6936H94.9102L87.545 30.0002C87.0197 31.3136 86.4135 32.3441 85.7265 33.0918C85.0597 33.8394 84.312 34.3647 83.4836 34.6678C82.6753 34.9709 81.7762 35.1225 80.7861 35.1225ZM83.5745 29.6365L76.3003 12.6936H81.1801L86.8176 26.3328L83.5745 29.6365Z" fill="#595959"/>
</svg>
